<svg xmlns="http://www.w3.org/2000/svg" xmlns:xlink="http://www.w3.org/1999/xlink" xmlns:inkscape="http://www.inkscape.org/namespaces/inkscape" version="1.1" width="576" height="576" viewBox="0 0 576 576">
<g inkscape:groupmode="layer" inkscape:label="Layer 1">
<path transform="matrix(1,0,0,-1,0,576)" d="M0 576H576V0H0Z" fill="#fec714" fill-rule="evenodd"/>
<path transform="matrix(1,0,0,-1,0,576)" d="M263.1464 266.4564 276.6101 266.5457C276.7839 258.9704 276.5503 251.1156 276.5064 243.5114 276.4862 239.9593 276.027 222.927 276.6767 220.873 297.311 220.4388 296.6394 222.2555 296.5992 217.5148L296.6122 208.2447 263.0942 208.4811ZM209.9585 223.5725C211.9303 229.6826 222.6121 264.3426 223.8307 266.9581L239.0868 266.711 239.9774 265.0071C240.1906 264.3287 240.3587 263.6688 240.5302 263.1042L256.938 208.5338 253.2781 208.4854C244.69 208.4933 242.6922 207.2942 241.6408 211.1292 241.0716 213.2065 240.3615 215.8038 239.9783 217.9397L236.0574 217.8567C232.5501 217.819 223.4285 218.6646 222.2612 217.5948 221.2328 216.2551 220.1428 210.7151 219.3318 208.728L205.3885 208.7674ZM167.8671 254.158C167.3515 256.5584 167.8581 264.2615 167.9105 267.2546L208.8774 266.686C209.6586 265.5848 209.2564 255.4963 209.2541 254.0752L198.7965 253.9366C197.9099 253.9454 196.1867 254.1677 195.6883 253.6191 194.4927 251.1298 196.0013 215.7457 195.071 208.838L181.9517 208.8496 182.0891 254.0517ZM303.726 266.2957 316.8096 266.2189 316.9655 241.1178 328.4067 260.1196C332.7959 267.7881 329.362 266.0049 346.7018 266.023 345.8081 262.9721 339.8026 254.4642 337.9521 251.6159L328.8702 237.888C330.0863 234.9958 347.8048 210.9674 348.7779 207.906L333.049 208.0409 321.1741 226.3558C320.4567 227.4386 319.9674 228.2168 319.2021 229.3084 318.3559 230.5162 317.8814 231.4794 316.6982 232.0957L316.6248 208.1421 303.4678 208.1302ZM205.5433 308.5282C205.1847 288.2631 213.9999 290.9134 217.2305 283.4008 203.6931 282.8806 189.845 283.5405 176.3124 283.5836 169.6774 283.6049 163.4315 283.7537 158.1021 281.05 153.2225 278.5745 150.2101 275.6146 147.6771 270.7319 144.3759 264.3678 144.7965 260.7817 144.6534 252.9836 144.5298 246.2374 144.5054 239.4048 144.4175 232.6164 144.3368 226.383 143.5448 218.2575 144.9938 212.5403 146.2598 207.5445 149.8859 202.0368 153.1757 199.9165 156.6142 198.9584 156.1686 197.3112 163.8887 196.3443 167.1752 195.933 203.1109 196.0744 207.942 196.0877 227.5339 196.1416 246.9855 195.8168 266.6327 195.7629 281.2394 195.7229 295.7525 195.2773 310.2239 195.4811 323.2188 195.6643 322.4078 197.2953 333.6335 189.9737 336.6967 187.9756 339.681 186.2342 342.7305 184.3092 345.8154 182.3621 357.9375 173.7255 360.985 173.4024 361.4377 176.0746 361.1492 181.1806 361.1616 184.1176 361.169 185.8759 361.1812 187.6303 361.1747 189.3895L361.6109 194.633C363.9365 196.7984 388.2954 192.4415 400.4169 196.2006 411.3711 199.5976 414.5584 209.5197 414.5791 223.1274 414.5893 229.7767 415.4854 260.0459 414.1471 263.7768 412.0237 269.6964 403.8477 289.7048 399.4775 290.554 398.408 288.8649 398.7213 288.4099 397.1268 286.7936 398.2289 286.6844 398.1844 286.5254 398.7768 285.338 399.0688 284.7532 399.3576 283.9995 399.5535 283.318 400.0918 281.4437 400.098 280.0003 400.1649 278.0892 400.4592 277.6294 400.2103 278.4107 400.5354 277.2164L400.6888 274.4254C400.326 266.6959 393.4585 263.9429 386.1561 263.516 386.8342 262.7614 393.1696 258.323 394.2289 253.2696L381.9053 248.3685 381.3599 249.2776C379.0032 253.8196 375.2694 256.5108 369.5627 254.465 367.4302 253.7008 365.1077 251.8075 365.5718 248.9556 366.8562 241.0654 390.4177 242.5382 393.7303 227.9262 396.6083 215.2301 387.0482 208.44 376.4049 206.8427 365.7107 205.2377 351.5267 211.0048 349.8412 218.863L362.8327 225.8742C364.1275 224.6482 363.3205 223.5249 365.8374 221.1174 370.4204 216.7339 380.6087 217.8805 380.1934 224.1689 379.7983 230.1511 366.2915 232.2666 361.2314 235.1489 349.251 241.973 348.8556 256.441 359.5893 263.372 361.6858 264.7261 361.9236 265.0547 364.6996 265.6528 366.6424 266.0712 369.2724 266.2146 370.929 266.6378 369.8274 267.8559 366.6393 269.551 365.0794 270.9663 351.7087 283.0989 354.6952 307.3833 373.7991 315.5168L374.0315 331.5852C368.7097 332.6542 361.561 331.179 355.25 332.4515 349.6252 333.5854 345.2102 338.7078 342.8957 339.3814 341.8481 338.7475 336.7837 334.3147 336.3026 333.4799 337.2049 330.2799 356.9159 310.0198 356.9834 308.1762 356.3688 306.1709 352.5276 304.1802 350.5915 302.925 347.292 300.7848 331.903 290.4242 329.8924 289.8281 326.7153 291.5563 306.6908 316.6676 303.4284 321.0829 296.5051 330.4517 290.4613 338.0105 290.486 351.3983 290.4959 356.7382 289.8726 360.5576 295.1623 361.334 296.6233 363.005 305.5745 364.4626 308.63 364.227 309.5898 360.5017 309.1309 359.2502 313.5883 359.4776 313.1271 360.8804 312.3272 372.4883 309.1572 373.1746L288.5122 373.0921C286.994 365.7438 289.6826 297.1882 287.4013 294.8077 285.0117 293.2758 276.8074 293.9831 273.31 294.0117 258.179 294.1359 260.0654 293.3138 252.4723 302.8042 250.2635 305.5654 251.394 311.2999 251.4328 315.5564 251.5221 325.3329 251.6658 335.046 251.7449 344.7261 251.8101 352.7099 252.5267 366.1461 251.4101 373.4419 248.9587 373.5833 246.7823 373.5921 244.552 373.1284 244.1988 366.827 244.5058 359.5717 244.4944 353.1606L244.0607 313.7992C244.0298 309.8891 244.8471 297.3135 243.1366 295.1022 240.819 293.883 222.3278 294.3564 218.4897 294.7842 215.2295 295.1473 212.8507 298.6353 211.2299 300.577 207.2585 305.3336 209.0962 303.4531 208.1177 310.1105 206.4832 309.9368 206.2261 309.5906 205.5433 308.5282" fill="#c50c11" fill-rule="evenodd"/>
<path transform="matrix(1,0,0,-1,0,576)" d="M374.1973 360.5596 350.886 360.5936C346.6018 360.4207 341.4563 360.1647 337.3461 360.9595 336.8656 365.6307 337.373 369.733 336.2944 374.3473 334.9845 379.9514 332.9714 381.7159 331.9291 384.5993L380.4574 384.245 380.4559 360.5559ZM183.2743 318.6556C201.4311 319.5626 210.8407 329.2764 213.4168 330.3247L213.2776 307.8303 235.0454 307.7155 235.7198 384.762 257.5638 384.3797C259.6348 383.0397 257.3546 316.2946 257.6741 308.122 261.5664 307.8986 274.9263 307.5698 278.1162 308.3998 278.7534 310.4532 278.7489 330.6986 278.6683 334.1129 278.5689 338.3311 278.5558 342.851 278.5907 347.1863L279.3781 360.142 279.6177 384.7949C285.3244 384.8729 291.1465 384.8216 296.8569 384.7428 299.7831 384.7025 302.7161 384.6597 305.6428 384.6419 309.1745 384.62 310.4861 385.5189 312.5305 383.2353 316.9426 378.3067 322.958 360.5661 313.5883 359.4776 309.1309 359.2502 309.5898 360.5017 308.63 364.227 305.5745 364.4626 296.6233 363.005 295.1623 361.334 295.0977 343.9148 301.665 338.6843 308.8494 328.9558 311.5913 325.2433 328.8368 304.17 329.8924 303.6112L344.7113 312.6892C345.9195 313.376 344.3695 312.4378 345.1643 312.9608 345.5379 313.2068 345.6094 313.2794 345.7993 313.4477 344.526 315.9099 335.1523 326.6683 333.4068 328.5658 331.5529 330.5809 322.1583 341.4095 320.9771 343.7325 327.083 343.8896 331.2289 347.2036 334.2688 351.6032 335.4908 353.3712 335.5515 354.8738 336.5283 356.3629 337.0533 350.8432 336.5586 348.4791 340.1657 345.8574 343.3552 343.5395 346.5201 342.8291 351.3186 342.6418 361.0497 342.2614 370.6597 342.7654 380.3632 342.6857L380.202 315.9082C378.8578 315.0238 376.6742 314.5601 375.1923 313.8279 373.4257 312.9548 372.3653 312.1243 370.9568 311.0431 368.3531 309.0441 366.196 306.3334 364.4929 303.0982 358.0189 290.7992 362.9443 271.4258 382.0586 268.2334 390.8942 266.7577 399.7726 269.1218 400.1649 278.0892 400.098 280.0003 400.0918 281.4437 399.5535 283.318 399.3576 283.9995 399.0688 284.7532 398.7768 285.338 398.1844 286.5254 398.2289 286.6844 397.1268 286.7936 385.3865 285.3269 385.5515 292.426 387.6817 295.3684 391.2778 300.3355 398.6915 297.5998 402.4372 294.611 408.3508 289.8918 414.3495 278.0138 417.8928 268.9617 424.872 268.13 432.1777 271.7192 433.9723 276.5018 436.3243 282.7698 431.7352 290.3287 429.0826 294.5636 424.3963 302.0462 418.8274 308.414 411.1815 312.4953 408.0762 314.153 405.3081 314.5184 402.2779 315.9082L402.4981 383.845C404.0609 384.3315 418.4096 383.9675 420.8012 383.7376 421.0294 386.6199 420.8862 389.9435 420.8788 392.8734 420.8743 394.8035 421.1731 400.4518 420.4877 401.811L203.8068 402.9837C203.5406 398.7607 203.6693 393.4162 204.0588 389.3287 204.5934 383.7144 206.7111 385.7709 213.5293 384.6095L213.8865 377.8294C214.1056 371.84 213.8287 365.8226 213.7958 359.8379 213.7799 356.9927 214.1011 353.9684 213.0171 351.6009 212.1936 349.8029 210.3381 347.4439 208.9349 346.8277 206.8637 344.1359 206.4804 344.6286 203.6633 342.6987 202.2225 341.6766 200.8247 340.8494 198.8722 340.467 195.499 337.5935 185.855 336.2664 180.2443 337.2982 176.487 337.5777 173.1441 338.9712 172.0097 341.8291 171.3436 343.5075 171.5085 345.829 172.1455 347.4882 172.9278 349.5271 173.7969 349.5189 174.5983 351.0094 178.6232 354.5997 189.7832 350.0921 192.9637 351.7821L193.1508 367.1413C191.7899 367.3145 190.9409 367.0662 189.6633 367.1796L187.2133 368.047C182.9923 368.2939 176.3223 367.8395 172.6605 369.1828 169.1252 370.48 165.8112 373.4728 165.0915 377.4552 163.1852 388.0015 178.5781 390.3483 179.174 377.7463 185.2543 378.178 186.7425 377.8707 192.4761 377.0544 193.9085 379.6824 192.6856 388.5335 191.7437 391.4487 185.7929 409.8671 142.5679 409.1091 146.9069 380.3403 149.1528 365.4527 159.9231 364.86 162.5083 363.3523 161.3639 362.2235 153.4703 359.2939 150.3649 352.3941 147.7176 346.5116 148.5102 338.4298 151.1507 332.9121 153.2903 328.4422 158.5772 323.7279 163.1798 321.7643 167.6169 319.8711 177.7516 318.2454 183.2743 318.6556" fill="#fec714" fill-rule="evenodd"/>
<path transform="matrix(1,0,0,-1,0,576)" d="M420.8012 383.7376C418.4096 383.9675 404.0609 384.3315 402.4981 383.845L402.2779 315.9082C405.3081 314.5184 408.0762 314.153 411.1815 312.4953 418.8274 308.414 424.3963 302.0462 429.0826 294.5636 431.7352 290.3287 436.3243 282.7698 433.9723 276.5018 432.1777 271.7192 424.872 268.13 417.8928 268.9617 414.3495 278.0138 408.3508 289.8918 402.4372 294.611 398.6915 297.5998 391.2778 300.3355 387.6817 295.3684 385.5515 292.426 385.3865 285.3269 397.1268 286.7936 398.7213 288.4099 398.408 288.8649 399.4775 290.554 403.8477 289.7048 412.0237 269.6964 414.1471 263.7768 415.4854 260.0459 414.5893 229.7767 414.5791 223.1274 414.5584 209.5197 411.3711 199.5976 400.4169 196.2006 388.2954 192.4415 363.9365 196.7984 361.6109 194.633L361.1747 189.3895C361.1812 187.6303 361.169 185.8759 361.1616 184.1176 361.1492 181.1806 361.4377 176.0746 360.985 173.4024 357.9375 173.7255 345.8154 182.3621 342.7305 184.3092 339.681 186.2342 336.6967 187.9756 333.6335 189.9737 322.4078 197.2953 323.2188 195.6643 310.2239 195.4811 295.7525 195.2773 281.2394 195.7229 266.6327 195.7629 246.9855 195.8168 227.5339 196.1416 207.942 196.0877 203.1109 196.0744 167.1752 195.933 163.8887 196.3443 156.1686 197.3112 156.6142 198.9584 153.1757 199.9165 154.8825 197.4594 158.5035 194.2038 160.8489 191.8497 163.1407 189.5488 167.0749 187.17 171.3118 186.4769 180.0329 185.0508 192.6437 185.9125 201.9677 185.8751 222.726 185.7923 243.4238 185.5678 264.1728 185.5264 284.7946 185.4856 305.7608 185.597 326.378 185.1681 333.4385 185.021 333.9198 185.0856 338.8484 181.8349 342.0077 179.7511 344.8891 177.9335 348.1934 175.7126 351.413 173.5486 354.494 171.5975 357.7408 169.4497 360.754 167.4558 363.9152 164.3837 368.8577 165.244 370.4669 169.3383 369.3835 179.2706 369.8243 184.5984 372.6746 185.4241 392.8978 183.2893 401.9026 185.1732 410.2217 186.9134 417.4628 193.4711 420.332 199.8094 424.0616 208.0494 423.3121 220.3016 423.3475 230.1562 423.3674 235.6622 423.3881 241.1683 423.413 246.674 423.451 255.0688 421.9611 259.8395 426.2973 264.4818 428.2498 266.5726 438.6104 264.9566 440.9399 279.0269 442.637 289.2776 437.5911 297.5051 433.1347 303.518 430.4687 307.1149 428.4213 309.7015 425.3332 312.2501 423.059 314.1272 423.7036 314.3458 423.7155 319.0708 423.7333 326.0052 423.3691 357.4871 424.4298 359.4101 428.2914 360.2239 434.9015 357.8749 437.8558 363.6289 440.1797 368.155 439.414 374.1174 439.5146 379.5188 439.6071 384.4743 440.4325 391.3934 438.8621 395.7077 437.184 400.3177 433.9687 401.6965 432.8651 403.0642 431.9674 404.1774 432.1089 404.5297 430.8038 405.2237 430.6456 396.8274 430.7202 388.2875 430.6793 379.87 430.6598 375.7816 431.1196 371.5313 427.4351 370.5412 423.6299 369.5182 419.9162 371.0835 416.4398 369.2092L415.9057 318.7233C414.7152 318.8069 412.4914 319.7129 411.5273 320.2084 411.3541 329.7393 411.1271 364.6636 411.8811 372.4007 419.5284 372.8829 421.3871 374.5987 420.8012 383.7376" fill="#1c180c" fill-rule="evenodd"/>
<path transform="matrix(1,0,0,-1,0,576)" d="M205.5433 308.5282C206.2261 309.5906 206.4832 309.9368 208.1177 310.1105 209.0962 303.4531 207.2585 305.3336 211.2299 300.577 212.8507 298.6353 215.2295 295.1473 218.4897 294.7842 222.3278 294.3564 240.819 293.883 243.1366 295.1022 244.8471 297.3135 244.0298 309.8891 244.0607 313.7992L244.4944 353.1606C244.5058 359.5717 244.1988 366.827 244.552 373.1284 246.7823 373.5921 248.9587 373.5833 251.4101 373.4419 252.5267 366.1461 251.8101 352.7099 251.7449 344.7261 251.6658 335.046 251.5221 325.3329 251.4328 315.5564 251.394 311.2999 250.2635 305.5654 252.4723 302.8042 260.0654 293.3138 258.179 294.1359 273.31 294.0117 276.8074 293.9831 285.0117 293.2758 287.4013 294.8077 289.6826 297.1882 286.994 365.7438 288.5122 373.0921L309.1572 373.1746C312.3272 372.4883 313.1271 360.8804 313.5883 359.4776 322.958 360.5661 316.9426 378.3067 312.5305 383.2353 310.4861 385.5189 309.1745 384.62 305.6428 384.6419 302.7161 384.6597 299.7831 384.7025 296.8569 384.7428 291.1465 384.8216 285.3244 384.8729 279.6177 384.7949L279.3781 360.142 279.034 307.4236 257.106 307.4907 257.5638 384.3797 235.7198 384.762 235.0454 307.7155 213.2776 307.8303 213.4168 330.3247C210.8407 329.2764 201.4311 319.5626 183.2743 318.6556 181.6741 318.1603 179.4932 318.6028 177.889 318.206 173.0985 317.0217 166.7605 316.2623 161.8401 317.2737 150.9854 319.5051 141.5177 332.2344 143.0904 344.9557 144.2991 354.7278 147.7176 356.3019 150.5259 360.5409 149.5123 362.3916 147.0818 363.71 145.5746 366.0075 136.6563 379.6024 140.8326 383.038 140.3853 390.8497 136.2464 386.5371 133.8633 377.8211 135.0122 369.7934 136.6299 358.4877 142.1161 356.006 144.1199 352.4579 141.4414 344.3142 135.5822 336.9495 138.6655 326.4129 143.6511 309.3755 161.2959 300.7355 179.3599 302.0295 193.8779 303.0693 197.0663 306.5828 205.5433 308.5282" fill="#1d190d" fill-rule="evenodd"/>
<path transform="matrix(1,0,0,-1,0,576)" d="M195.9619 408.4311C198.0116 404.7347 198.5598 398.0546 198.4912 392.8734 199.7793 384.6093 199.0247 383.5998 201.9733 378.1585L213.8862 377.8294 213.5293 384.6093C206.7111 385.7709 204.5934 383.7146 204.0588 389.3287 203.6693 393.4162 203.5409 398.7607 203.8071 402.9837L420.4877 401.811C421.1731 400.4518 420.8743 394.8032 420.8788 392.8734 420.8859 389.9435 421.0294 386.6199 420.8014 383.7376 421.3871 374.5987 419.5284 372.8829 411.8811 372.4004 411.1271 364.6636 411.3541 329.7393 411.5273 320.2087 412.4914 319.7129 414.7152 318.8072 415.9057 318.7233L416.4398 369.2092C419.9162 371.0835 423.6299 369.5185 427.4351 370.5412 431.1196 371.5316 430.6598 375.7816 430.6796 379.87 430.7202 388.2875 430.6456 396.8274 430.8035 405.2237 428.5466 409.3481 425.4205 409.4082 419.8612 409.4073 365.0309 409.3974 309.623 410.3694 254.6838 410.4527L201.6147 410.6098C198.3127 410.582 197.4529 410.6514 195.9619 408.4311" fill="#c50c11" fill-rule="evenodd"/>
<path transform="matrix(1,0,0,-1,0,576)" d="M370.929 266.6378C374.0437 266.631 376.4557 266.6767 379.4012 265.9462 381.9864 265.305 383.9751 264.0427 386.1561 263.516 393.4585 263.9429 400.326 266.6959 400.6888 274.4254L400.5354 277.2164C400.2103 278.4107 400.4592 277.6294 400.1649 278.0892 399.7726 269.1218 390.8942 266.7577 382.0586 268.2334 362.9443 271.4258 358.0189 290.7992 364.4929 303.0982 366.196 306.3334 368.3531 309.0441 370.9568 311.0431 372.3653 312.1243 373.4257 312.9548 375.1923 313.8279 376.6742 314.5601 378.8578 315.0238 380.202 315.9082L380.3632 342.6857C370.6597 342.7654 361.0497 342.2614 351.3186 342.6418 346.5201 342.8291 343.3552 343.5395 340.1657 345.8574 336.5586 348.4791 337.0533 350.8432 336.5283 356.3629 335.5515 354.8738 335.4908 353.3712 334.2688 351.6032 331.2289 347.2036 327.083 343.8896 320.9771 343.7325 322.1583 341.4095 331.5529 330.5809 333.4068 328.5658 335.1523 326.6683 344.526 315.9099 345.7993 313.4477 345.6094 313.2794 345.5379 313.2068 345.1643 312.9608 344.3695 312.4378 345.9195 313.376 344.7113 312.6892L329.8924 303.6112C328.8368 304.17 311.5913 325.2433 308.8494 328.9558 301.665 338.6843 295.0977 343.9148 295.1623 361.334 289.8726 360.5576 290.4959 356.7382 290.486 351.3983 290.4613 338.0105 296.5051 330.4517 303.4284 321.0829 306.6908 316.6676 326.7153 291.5563 329.8924 289.8281 331.903 290.4242 347.292 300.7848 350.5915 302.925 352.5276 304.1802 356.3688 306.1709 356.9834 308.1762 356.9159 310.0198 337.2049 330.2799 336.3026 333.4799 336.7837 334.3147 341.8481 338.7475 342.8957 339.3814 345.2102 338.7078 349.6252 333.5854 355.25 332.4515 361.561 331.179 368.7097 332.6542 374.0315 331.5852L373.7991 315.5168C354.6952 307.3833 351.7087 283.0989 365.0794 270.9663 366.6393 269.551 369.8274 267.8559 370.929 266.6378" fill="#1d190d" fill-rule="evenodd"/>
<path transform="matrix(1,0,0,-1,0,576)" d="M230.9102 249.4913C232.179 246.437 233.2352 242.5907 234.0935 239.4272 234.7608 236.969 236.5557 231.1243 236.7717 228.8137L225.415 228.8066ZM205.3885 208.7674 219.3318 208.728C220.1428 210.7151 221.2328 216.2551 222.2612 217.5948 223.4285 218.6646 232.5501 217.819 236.0574 217.8567L239.9783 217.9397C240.3615 215.8038 241.0716 213.2065 241.6408 211.1292 242.6922 207.2942 244.69 208.4933 253.2781 208.4854L256.938 208.5338 240.5302 263.1042C240.3587 263.6688 240.1906 264.3287 239.9774 265.0071L239.0868 266.711 223.8307 266.9581C222.6121 264.3426 211.9303 229.6826 209.9585 223.5725Z" fill="#f2e9c8" fill-rule="evenodd"/>
<path transform="matrix(1,0,0,-1,0,576)" d="M303.4678 208.1302 316.6248 208.1421 316.6982 232.0957C317.8814 231.4794 318.3559 230.5162 319.2021 229.3084 319.9674 228.2168 320.4567 227.4386 321.1741 226.3558L333.049 208.0409 348.7779 207.906C347.8048 210.9674 330.0863 234.9958 328.8702 237.888L337.9521 251.6159C339.8026 254.4642 345.8081 262.9721 346.7018 266.023 329.362 266.0049 332.7959 267.7881 328.4067 260.1196L316.9655 241.1178 316.8096 266.2189 303.726 266.2957Z" fill="#efeac9" fill-rule="evenodd"/>
<path transform="matrix(1,0,0,-1,0,576)" d="M386.1561 263.516C383.9751 264.0427 381.9864 265.305 379.4012 265.9462 376.4557 266.6767 374.0437 266.631 370.929 266.6378 369.2724 266.2146 366.6424 266.0712 364.6996 265.6528 361.9236 265.0547 361.6858 264.7261 359.5893 263.372 348.8556 256.441 349.251 241.973 361.2314 235.1489 366.2915 232.2666 379.7983 230.1511 380.1934 224.1689 380.6087 217.8805 370.4204 216.7339 365.8374 221.1174 363.3205 223.5249 364.1275 224.6482 362.8327 225.8742L349.8412 218.863C351.5267 211.0048 365.7107 205.2377 376.4049 206.8427 387.0482 208.44 396.6083 215.2301 393.7303 227.9262 390.4177 242.5382 366.8562 241.0654 365.5718 248.9556 365.1077 251.8075 367.4302 253.7008 369.5627 254.465 375.2694 256.5108 379.0032 253.8196 381.3599 249.2776L381.9053 248.3685 394.2289 253.2696C393.1696 258.323 386.8342 262.7614 386.1561 263.516" fill="#f2e9c8" fill-rule="evenodd"/>
<path transform="matrix(1,0,0,-1,0,576)" d="M140.3853 390.8497C140.8326 383.038 136.6563 379.6024 145.5746 366.0075 147.0818 363.71 149.5123 362.3916 150.5259 360.5409 147.7176 356.3019 144.2991 354.7278 143.0904 344.9557 141.5177 332.2344 150.9854 319.5051 161.8401 317.2737 166.7605 316.2623 173.0985 317.0217 177.889 318.206 179.4932 318.6028 181.6741 318.1603 183.2743 318.6556 177.7516 318.2454 167.6169 319.8711 163.1798 321.7643 158.5772 323.7279 153.2903 328.4422 151.1507 332.9121 148.5102 338.4298 147.7176 346.5116 150.3649 352.3941 153.4703 359.2939 161.3639 362.2235 162.5083 363.3523 159.9231 364.86 149.1528 365.4527 146.9069 380.3403 142.5679 409.1091 185.7929 409.8671 191.7437 391.4487 192.6856 388.5335 193.9085 379.6824 192.4761 377.0544 196.2091 367.111 196.6504 369.3433 201.0552 363.494 204.5061 358.9112 202.8552 349.9413 203.0757 343.3204 203.169 343.2345 203.538 342.7846 203.6633 342.6987 206.4804 344.6286 206.8637 344.1359 208.9349 346.8277L209.0276 371.6759C205.8831 372.1654 199.8825 370.9406 198.5964 373.3747 198.3305 373.8776 196.7014 382.4827 196.6782 383.3719 196.4574 391.7772 193.8838 396.8226 194.0712 405.2786L193.9178 401.328C192.9172 401.8652 192.094 402.798 191.1898 403.5334 190.0638 404.4495 189.5236 404.9084 188.1564 405.7761 180.5494 410.6055 171.8113 412.0191 162.6755 410.038 151.778 407.6745 144.3433 399.75 140.3853 390.8497" fill="#c20e11" fill-rule="evenodd"/>
<path transform="matrix(1,0,0,-1,0,576)" d="M167.8671 254.158 182.0891 254.0517 181.9517 208.8496 195.071 208.838C196.0013 215.7457 194.4927 251.1298 195.6883 253.6191 196.1867 254.1677 197.9099 253.9454 198.7965 253.9366L209.2541 254.0752C209.2564 255.4963 209.6586 265.5848 208.8774 266.686L167.9105 267.2546C167.8581 264.2615 167.3515 256.5584 167.8671 254.158" fill="#f2e9c8" fill-rule="evenodd"/>
<path transform="matrix(1,0,0,-1,0,576)" d="M263.0942 208.4811 296.6122 208.2447 296.5992 217.5148C296.6394 222.2555 297.311 220.4388 276.6767 220.873 276.027 222.927 276.4862 239.9593 276.5064 243.5114 276.5503 251.1156 276.7839 258.9704 276.6101 266.5457L263.1464 266.4564Z" fill="#f2e9c8" fill-rule="evenodd"/>
<path transform="matrix(1,0,0,-1,0,576)" d="M187.2133 368.047C188.3945 368.0127 189.54 367.9642 190.7198 367.9007 191.9985 367.8321 192.7437 367.8443 193.7602 367.2184 193.7713 364.2148 194.0355 352.9797 193.356 350.8795 186.899 350.3934 185.54 352.3847 174.5983 351.0094 173.7969 349.5189 172.9278 349.5271 172.1455 347.4882 171.5085 345.829 171.3436 343.5075 172.0097 341.8291 173.1441 338.9712 176.487 337.5777 180.2443 337.2982 181.3708 341.1527 183.4407 340.7108 187.907 340.8015 192.0186 340.8851 195.0333 340.7031 198.8722 340.467 200.8247 340.8494 202.2225 341.6766 203.6633 342.6987 203.538 342.7846 203.169 343.2345 203.0757 343.3204 202.8552 349.9413 204.5061 358.9112 201.0552 363.494 196.6504 369.3433 196.2091 367.111 192.4761 377.0544 186.7425 377.8707 185.2543 378.178 179.174 377.7463 178.5781 390.3483 163.1852 388.0015 165.0915 377.4552 165.8112 373.4728 169.1252 370.48 172.6605 369.1828 176.3223 367.8395 182.9923 368.2939 187.2133 368.047" fill="#1d190d" fill-rule="evenodd"/>
<path transform="matrix(1,0,0,-1,0,576)" d="M350.886 360.5936 350.9674 362.2963C350.7058 362.9021 349.4285 368.1737 349.4055 368.6862 348.9372 369.0865 348.8964 368.8466 348.2742 370.5148 347.974 371.3199 347.8085 371.7349 347.9088 372.7372L374.1928 372.8064 374.1973 360.5596 380.4559 360.5559 380.4574 384.245 331.9291 384.5993C332.9714 381.7159 334.9845 379.9514 336.2944 374.3473 337.373 369.733 336.8656 365.6307 337.3461 360.9595 341.4563 360.1647 346.6018 360.4207 350.886 360.5936" fill="#1d190d" fill-rule="evenodd"/>
<path transform="matrix(1,0,0,-1,0,576)" d="M194.0712 405.2786C194.0128 402.6385 197.4849 375.4774 198.5964 373.3747 199.8825 370.9406 205.8829 372.1654 209.0276 371.6759L208.9349 346.8277C210.3381 347.4439 212.1936 349.8029 213.0171 351.6009 214.1014 353.9684 213.7802 356.9927 213.7958 359.8381 213.8287 365.8226 214.1059 371.8397 213.8862 377.8294L201.9733 378.1585C199.7906 383.5417 199.9868 384.143 198.4912 392.8734 198.5598 398.0546 198.0116 404.7347 195.9619 408.4311 194.8224 407.8123 194.4281 407.0625 194.0712 405.2786" fill="#241b0b" fill-rule="evenodd"/>
<path transform="matrix(1,0,0,-1,0,576)" d="M225.415 228.8066 236.7717 228.8137C236.5557 231.1243 234.7608 236.969 234.0935 239.4272 233.2352 242.5907 232.179 246.437 230.9102 249.4913Z" fill="#c20e11" fill-rule="evenodd"/>
<path transform="matrix(1,0,0,-1,0,576)" d="M279.3781 360.142 278.5907 347.1863C278.5558 342.851 278.5689 338.3311 278.6683 334.1129 278.7489 330.6986 278.7534 310.4532 278.1162 308.3998 274.9263 307.5698 261.5664 307.8986 257.6741 308.122 257.3546 316.2946 259.6348 383.0397 257.5638 384.3797L257.106 307.4907 279.034 307.4236Z" fill="#f2cf4f" fill-rule="evenodd"/>
<path transform="matrix(1,0,0,-1,0,576)" d="M180.2443 337.2982C185.855 336.2664 195.499 337.5935 198.8722 340.467 195.0333 340.7031 192.0186 340.8851 187.907 340.8015 183.4407 340.7108 181.3708 341.1527 180.2443 337.2982" fill="#b41513" fill-rule="evenodd"/>
<path transform="matrix(1,0,0,-1,0,576)" d="M350.886 360.5936 374.1973 360.5596 374.1928 372.8064 347.5837 372.8242C347.36 370.5902 351.11 365.2798 350.886 360.5936" fill="#c50c11" fill-rule="evenodd"/>
<path transform="matrix(1,0,0,-1,0,576)" d="M174.5983 351.0094C185.54 352.3847 186.899 350.3934 193.356 350.8795 194.0355 352.9797 193.7713 364.2148 193.7602 367.2184 192.7437 367.8443 191.9985 367.8321 190.7198 367.9007 189.54 367.9642 188.3945 368.0127 187.2133 368.047L189.6633 367.1796C190.9409 367.0662 191.7899 367.3145 193.1508 367.1413L192.9637 351.7821C189.7832 350.0921 178.6232 354.5997 174.5983 351.0094" fill="#ffe251" fill-rule="evenodd"/>
</g>
</svg>
